<svg width="224" height="55" viewBox="0 0 224 55" fill="none" xmlns="http://www.w3.org/2000/svg">
<path fill-rule="evenodd" clip-rule="evenodd" d="M16.8185 0.324716C15.3195 0.944696 14.3383 2.96368 14.7792 4.52119C14.919 5.01509 17.4291 9.56014 20.3573 14.6213L25.6814 23.8235L14.2328 23.9609C3.91097 24.0848 2.71166 24.1457 2.04691 24.5814C0.219928 25.7793 -0.0283942 28.529 1.54806 30.1063L2.40703 30.9655L14.0565 31.1029L25.7056 31.2402L20.2318 40.7111C17.2215 45.92 14.7391 50.4319 14.7154 50.7373C14.5212 53.2639 15.9562 55.0022 18.2342 55C20.2475 54.9981 20.701 54.4654 24.9334 47.1334C35.564 28.7166 35.6349 28.5867 35.6349 27.5484C35.6349 26.7413 34.3724 24.354 29.156 15.296C20.5507 0.353557 20.8924 0.896624 19.811 0.444756C18.8004 0.0225537 17.6596 -0.0233189 16.8185 0.324716ZM44.1503 0.543919C43.3433 0.946893 42.6934 1.88359 40.1006 6.38058C38.4019 9.32665 36.885 12.192 36.7301 12.7479C35.8991 15.7267 39.4204 18.2168 42.1283 16.5656C43.4351 15.769 49.3698 5.27357 49.3684 3.76221C49.367 2.34343 48.5037 0.955959 47.3121 0.458216C46.0704 -0.0606771 45.3194 -0.0403508 44.1503 0.543919ZM77.0337 1.60725C76.9266 1.71466 76.8387 6.41711 76.8387 12.0576V22.3127H78.6242H80.4097V19.3518V16.3909L82.1686 14.6477L83.9277 12.9042L87.6695 17.6086L91.4117 22.3127H93.635H95.8587L94.9132 21.1453C94.3932 20.5031 92.2566 17.8363 90.1651 15.2191L86.3626 10.4603L90.6656 6.15121C93.0321 3.78117 94.9684 1.75064 94.9684 1.63912C94.9684 1.52732 93.9474 1.43612 92.6994 1.43612H90.4302L85.4888 6.38415L80.5471 11.3325L80.4097 6.45282L80.2724 1.57347L78.7506 1.49271C77.9136 1.44848 77.1411 1.49985 77.0337 1.60725ZM164.191 1.70367C164.191 1.86382 165.921 4.58656 168.037 7.75404L171.882 13.513V17.913V22.3127H173.668H175.453L175.453 17.849L175.454 13.3852L179.299 7.61669C181.414 4.444 183.144 1.75531 183.144 1.64214C183.145 1.52897 182.299 1.43612 181.264 1.43612C179.037 1.43612 179.401 1.0988 176.142 6.18418C174.716 8.40781 173.613 9.86972 173.469 9.72551C173.334 9.59063 172.077 7.70102 170.675 5.52684L168.127 1.57347L166.159 1.49271C164.904 1.44134 164.191 1.5177 164.191 1.70367ZM103.844 7.73893C103.181 8.03999 102.344 8.7443 101.869 9.40027L101.044 10.5391L100.869 9.48982C100.584 7.78041 100.559 7.75404 99.2346 7.75404H97.99V15.1845V22.6149L99.5695 22.5325L101.149 22.4501L101.286 17.5056C101.399 13.4534 101.508 12.4425 101.889 11.9035C102.701 10.7573 103.785 10.2301 105.334 10.2282C106.535 10.2265 106.919 10.3578 107.669 11.027L108.566 11.828L108.703 17.1389L108.84 22.4501L110.42 22.5325L111.999 22.6149V17.0985C111.999 10.9965 111.851 10.2664 110.281 8.64404C108.837 7.15219 106.012 6.75498 103.844 7.73893ZM119.414 7.46122C118.091 7.86364 117.032 8.55092 116.037 9.65299C111.433 14.7485 114.878 23.0055 121.591 22.964C123.781 22.9506 125.018 22.4561 126.669 20.9346C129.955 17.9058 129.769 11.6843 126.308 8.83138C124.605 7.4277 121.532 6.81706 119.414 7.46122ZM184.645 7.62521C181.86 8.65558 180.097 11.2572 179.91 14.6109C179.756 17.3718 180.468 19.3287 182.21 20.9346C183.86 22.4561 185.098 22.9506 187.288 22.964C194.002 23.0055 197.445 14.7483 192.84 9.65079C192.287 9.03905 191.332 8.28062 190.717 7.96528C189.271 7.22416 186.195 7.05165 184.645 7.62521ZM219.175 7.78755C218.485 8.13284 217.678 8.84814 217.253 9.49092L216.52 10.5988L216.293 9.1764L216.066 7.75404H214.709H213.352L213.425 15.1021L213.498 22.4501L215.054 22.5317L216.61 22.6135L216.702 17.9784C216.79 13.569 216.828 13.2949 217.476 12.3488C218.458 10.9177 219.841 10.2263 221.722 10.2263H223.278L223.195 8.78414L223.112 7.342L221.739 7.26701C220.762 7.21345 220.021 7.36398 219.175 7.78755ZM128.756 7.81008C128.756 7.85485 130.156 11.1671 131.867 15.1707L134.978 22.4501L137.327 22.5289L139.676 22.6077L140.856 19.3699C141.505 17.5891 142.488 14.9197 143.04 13.4377L144.044 10.7435L146.529 16.5967L149.015 22.4501L151.353 22.5289C153.691 22.608 153.692 22.6077 153.968 21.8422C154.12 21.4211 155.308 18.1882 156.608 14.6579C157.908 11.1275 158.972 8.12405 158.972 7.98341C158.972 7.84277 158.214 7.76475 157.288 7.80953L155.605 7.89139L153.524 13.5907C152.38 16.7252 151.356 19.1974 151.249 19.0845C151.142 18.9714 150.011 16.4068 148.736 13.3852L146.419 7.89139H143.989H141.56L139.484 13.5761C138.343 16.7027 137.329 19.1749 137.231 19.07C137.134 18.9651 136 16.4068 134.712 13.3852L132.37 7.89139L130.563 7.81008C129.569 7.76558 128.756 7.76558 128.756 7.81008ZM196.605 12.7922C196.605 18.5371 196.88 19.9353 198.303 21.4029C200.289 23.4521 203.902 23.5455 206.167 21.6062C206.782 21.0799 207.376 20.3745 207.486 20.0388C207.648 19.5477 207.745 19.7235 207.983 20.9393L208.279 22.4501L209.584 22.5338L210.888 22.6176V15.1858V7.75404H209.24H207.592L207.588 12.3551C207.583 16.6096 207.537 17.037 206.97 18.0264C205.877 19.9322 203.75 20.5967 201.824 19.6339C200.144 18.7947 199.902 17.8959 199.901 12.4925L199.901 7.75404H198.253H196.605V12.7922ZM123.883 10.8267C126.251 12.5128 126.307 17.1307 123.987 19.2683C122.911 20.2591 120.698 20.3819 119.431 19.5208C117.954 18.5168 117.355 17.2598 117.359 15.1707C117.361 13.7918 117.513 13.1207 118.025 12.223C119.275 10.0304 121.89 9.40741 123.883 10.8267ZM189.456 10.7251C191.181 12.0022 191.963 14.3986 191.372 16.5956C190.699 19.0914 189.191 20.2646 186.932 20.0476C184.611 19.8246 183.139 17.9023 183.151 15.1108C183.161 12.69 184.459 10.643 186.304 10.1408C187.203 9.89609 188.715 10.1763 189.456 10.7251ZM46.9269 24.4323C45.1494 25.308 44.5654 27.881 45.7381 29.6706C46.6113 31.0034 47.2118 31.1029 54.3969 31.1029C60.9209 31.1029 61.125 31.0861 62.0334 30.4758C62.6336 30.0728 63.111 29.4352 63.3703 28.6903C63.7252 27.6714 63.7252 27.3923 63.3703 26.3735C63.111 25.6285 62.6336 24.991 62.0334 24.588C61.125 23.9776 60.9228 23.9612 54.4793 23.9672C48.8569 23.9724 47.7183 24.0425 46.9269 24.4323ZM84.6562 26.2485C77.7933 28.0071 74.3431 34.6711 76.8404 41.345C77.9652 44.3518 81.1898 47.0652 84.5617 47.8426C86.6013 48.3129 89.7828 48.1896 91.8493 47.5602C94.742 46.6793 94.9684 46.4714 94.9684 44.6938C94.9684 43.8664 94.9168 43.1893 94.8536 43.1893C94.7904 43.1893 94.1416 43.4852 93.4114 43.8464C90.7851 45.1468 87.3396 45.4635 84.7677 44.6408C82.8276 44.0205 80.6918 41.9428 80.046 40.0477C79.5323 38.5402 79.4488 36.1391 79.8584 34.6643C80.3031 33.0636 81.6966 31.1457 83.0284 30.301C85.597 28.6721 90.0473 28.6438 93.3634 30.2354L94.9684 31.0056V29.4157C94.9684 27.6225 94.9511 27.6049 92.2632 26.668C90.2951 25.9818 86.5109 25.773 84.6562 26.2485ZM128.901 26.7765C128.84 26.9655 128.746 28.031 128.693 29.1446C128.607 30.9556 128.516 31.238 127.837 31.8228C127.419 32.1821 126.775 32.4763 126.405 32.4763C125.775 32.4763 125.734 32.5678 125.734 33.9871V35.498H127.228H128.721L128.807 40.5743L128.893 45.6503L129.653 46.4096C130.379 47.1356 130.55 47.1732 133.567 47.2688L136.722 47.369V45.8286V44.2881H134.387H132.052V39.893V35.498H134.387H136.722V33.9871V32.4763H134.387H132.052V29.4547V26.4331H130.533C129.56 26.4331 128.973 26.5567 128.901 26.7765ZM116.806 32.1659C115.621 32.4802 114.417 33.1515 113.784 33.8506C113.368 34.311 113.235 34.8431 113.235 36.0608C113.235 37.5106 113.325 37.757 114.163 38.6215C114.672 39.1475 116.032 40.0438 117.184 40.6135C120.935 42.4688 121.715 43.339 120.562 44.3829C119.66 45.199 115.411 44.8295 113.415 43.761C112.801 43.4327 112.796 43.4453 112.878 45.016L112.961 46.6027L114.558 47.0878C117.101 47.8602 119.36 47.9942 121.136 47.4781C123.99 46.6483 125.163 44.6521 124.231 42.2114C123.677 40.7597 122.909 40.1416 119.483 38.3891C117.507 37.3788 116.9 36.9318 116.764 36.3877C116.637 35.8822 116.729 35.5842 117.093 35.3178C117.769 34.8236 120.553 34.8456 122.531 35.3606C123.401 35.5872 124.175 35.7726 124.251 35.7726C124.327 35.7726 124.352 35.1285 124.306 34.3412L124.223 32.9101L122.987 32.5475C121.442 32.0942 117.901 31.8756 116.806 32.1659ZM142.221 32.4642C138.35 33.8006 136.397 38.2158 137.713 42.6586C138.558 45.5143 141.765 47.8591 144.825 47.8591C148.946 47.8591 152.379 44.2392 152.379 39.893C152.379 37.6337 151.665 35.8735 150.095 34.2635C147.902 32.0149 145.268 31.4127 142.221 32.4642ZM160.186 32.4478C159.031 32.9724 158.046 33.9976 157.695 35.0398C157.536 35.5125 157.433 35.3238 157.198 34.1245L156.902 32.6137L155.602 32.5299L154.302 32.4461V39.8779V47.3097H155.95H157.598V42.8641C157.598 38.8852 157.66 38.291 158.185 37.206C159.386 34.7255 162.55 34.1042 163.704 36.1223C163.938 36.5313 164.099 38.463 164.191 41.9532L164.328 47.1724H165.976H167.624L167.762 42.3653C167.878 38.3004 167.979 37.426 168.417 36.7028C169.864 34.3127 173.176 34.3569 174.096 36.7783C174.239 37.1513 174.354 39.6735 174.354 42.3831V47.3097H176.003H177.651L177.649 42.0219C177.648 39.1134 177.518 36.2671 177.36 35.6966C176.176 31.4339 170.192 30.6595 167.917 34.4747C167.244 35.6029 167.24 35.6051 166.983 34.9288C166.593 33.9039 165.029 32.5063 163.93 32.2011C162.504 31.8047 161.449 31.8742 160.186 32.4478ZM184.636 32.4263C182.927 33.0172 181.866 33.8245 180.881 35.2826C178.98 38.0971 179.138 42.3606 181.239 44.9092C182.286 46.1794 185.005 47.5017 187.057 47.7393C188.989 47.9629 191.726 47.4822 193.191 46.6623C194.206 46.0945 194.275 45.9753 194.353 44.6284L194.435 43.1978L193.064 43.8865C188.71 46.0733 183.861 44.9026 182.996 41.4557L182.81 40.7171H188.883H194.956V39.8425C194.956 39.3612 194.747 38.2215 194.491 37.3093C194.127 36.0122 193.723 35.3408 192.637 34.2269C190.503 32.0382 187.629 31.3916 184.636 32.4263ZM203.06 32.2511C202.074 32.6024 200.848 33.6784 200.142 34.8112L199.628 35.6353L199.627 34.9142C199.627 34.5176 199.549 33.8069 199.454 33.3347C199.29 32.5142 199.224 32.4763 197.944 32.4763H196.605V39.893V47.3097H198.253H199.901L199.907 43.1207C199.912 39.6367 199.998 38.7467 200.42 37.8328C201.353 35.8122 202.769 34.9486 205.152 34.9486H206.522L206.439 33.5064L206.356 32.0643L205.12 32.011C204.44 31.9816 203.513 32.0896 203.06 32.2511ZM97.172 38.0389C97.1786 44.2496 97.3761 45.1399 99.0621 46.5584C101.437 48.5565 105.549 48.0761 107.35 45.5899C108.092 44.5658 108.137 44.5441 108.262 45.1556C108.745 47.5155 108.604 47.3465 110.017 47.2556L111.313 47.1724V39.893V32.6137H109.664H108.016L107.879 37.5581C107.763 41.7255 107.664 42.6177 107.245 43.2344C106.248 44.7032 103.758 45.2773 102.101 44.4208C100.638 43.6643 100.462 42.9135 100.462 37.4345V32.4763H98.8141H97.1659L97.172 38.0389ZM188.911 35.1172C190.026 35.5631 190.875 36.4822 191.23 37.6268L191.422 38.2449H187.283C184.577 38.2449 183.145 38.1452 183.145 37.9564C183.145 37.7979 183.317 37.334 183.529 36.9258C184.559 34.934 186.675 34.2226 188.911 35.1172ZM147.437 35.985C149.602 38.1501 149.602 41.6359 147.437 43.8011C146.501 44.7367 146.26 44.8375 144.959 44.8375C143.254 44.8375 142.059 44.2013 141.254 42.8649C140.459 41.545 140.475 38.1899 141.283 36.914C142.164 35.5218 143.221 34.9524 144.926 34.9505C146.266 34.9488 146.495 35.0428 147.437 35.985ZM38.4653 38.5075C37.2396 39.2549 36.6403 40.2872 36.6521 41.6316C36.66 42.5795 37.1927 43.7025 39.7355 48.1338C41.4262 51.0799 43.1029 53.7886 43.462 54.1528C43.9504 54.6487 44.4992 54.8475 45.6417 54.9423C47.1244 55.0651 47.2008 55.0368 48.2691 53.9685C49.2591 52.9785 49.3681 52.7341 49.3547 51.5312C49.3415 50.3368 48.994 49.5943 46.1048 44.5834C43.4727 40.0183 42.6956 38.8797 41.935 38.4715C40.7293 37.8249 39.5649 37.837 38.4653 38.5075Z" fill="white"/>
</svg>
